<svg id="visual" viewBox="0 0 960 540" width="960" height="540" xmlns="http://www.w3.org/2000/svg" xmlns:xlink="http://www.w3.org/1999/xlink" version="1.1"><path d="M0 314L137 314L137 165L274 165L274 300L411 300L411 215L549 215L549 314L686 314L686 168L823 168L823 292L960 292L960 171L960 0L960 0L823 0L823 0L686 0L686 0L549 0L549 0L411 0L411 0L274 0L274 0L137 0L137 0L0 0Z" fill="#d2b356"></path><path d="M0 64L137 64L137 85L274 85L274 108L411 108L411 77L549 77L549 47L686 47L686 152L823 152L823 204L960 204L960 40L960 0L960 0L823 0L823 0L686 0L686 0L549 0L549 0L411 0L411 0L274 0L274 0L137 0L137 0L0 0Z" fill="#13234c"></path></svg>